<svg xmlns="http://www.w3.org/2000/svg" xmlns:xlink="http://www.w3.org/1999/xlink" width="802px" height="602px" viewBox="-0.195323 0 802.391 602" preserveAspectRatio="xMidYMid meet" ><defs id="svgEditorDefs"><linearGradient gradientUnits="objectBoundingBox" id="lgrd2-black-white" spreadMethod="pad" x1="0%" x2="100%" y1="0%" y2="100%"><stop offset="0%" stop-color="black"/><stop offset="100%" stop-color="white"/></linearGradient></defs><rect id="svgEditorBackground" x="0" y="0" width="802" height="602" style="fill: none; stroke: none;"/>
 <title>Image.png</title>
 <g>
  <title>background</title>
  <rect fill="none" id="canvas_background" height="602" width="802" y="0" x="0"/>
 </g>
 <g>
  <title>Layer 1</title>
  <g stroke="null" transform="rotate(0.24103400111198425 389.77871704099175,300.77615356445926) " id="svg_1" opacity="0.8">
   <g stroke="null" id="svg_2">
    <path stroke="null" fill="#FF0000" id="svg_3" d="M210.24036,135.15515c-3.9521100000000047,0,-8.468790000000013,-1.8784899999999993,-11.291719999999998,-5.009340000000009c-6.77503999999999,-6.887820000000005,-7.3396199999999965,-18.784980000000004,-1.129179999999991,-26.29898c16.37299999999999,-20.037319999999994,35.00435000000002,-36.94381,55.89401000000001,-51.34564c7.904200000000003,-5.6355,18.631349999999998,-2.504660000000001,23.14803999999998,6.261670000000002c5.081270000000018,8.76632,2.258330000000001,20.663490000000003,-5.645870000000002,25.67282000000001c-18.066750000000013,12.523319999999998,-34.439750000000004,26.925150000000002,-48.55439000000001,44.457809999999995c-3.387519999999995,3.757010000000008,-7.904220000000009,6.261660000000006,-12.420889999999986,6.261660000000006Z"/>
   </g>
   <g stroke="null" id="svg_4">
    <path stroke="null" fill="#8A2BE2" id="svg_5" d="M148.70047,363.70587c-7.904200000000003,0,-15.24382,-6.261660000000006,-16.937579999999997,-15.654170000000022c-2.258340000000004,-15.654150000000016,-3.387519999999995,-31.934480000000008,-3.387519999999995,-47.58863000000002c0,-35.69148999999999,5.645859999999999,-70.7568,16.937569999999994,-103.31745000000001c3.387529999999998,-9.392509999999987,12.985489999999999,-14.40182999999999,22.018879999999996,-10.644830000000013c8.46878000000001,3.757010000000008,12.985469999999992,14.40182999999999,9.597939999999994,24.42049c-10.162530000000004,28.803650000000005,-14.67922999999999,58.85963000000001,-14.67922999999999,90.16794999999999c0,13.775669999999991,1.1291899999999941,28.177489999999977,2.8229300000000137,41.953160000000025c1.6937700000000007,10.01864999999998,-4.516680000000008,20.037320000000022,-13.97022110568605,20.64208596789922c-0.6066388488098369,-0.006087691925813488,-1.273598894313949,0.02139403210077262,-2.402768894313965,0.02139403210077262Z"/>
   </g>
   <g stroke="null" id="svg_6">
    <path stroke="null" fill="#00FFFF" id="svg_7" d="M624.64654,396.8927c-1.6937199999999848,0,-3.3875100000000202,0,-5.081289999999967,-0.6261600000000271c-9.033390000000054,-3.130830000000003,-14.114630000000034,-13.14951000000002,-11.291690000000017,-23.168150000000026c3.3875100000000202,-13.14951000000002,6.210450000000037,-26.29901000000001,7.904170000000022,-40.07465000000002c1.129220000000032,-10.018680000000018,9.597970000000032,-17.53267999999997,19.195929999999976,-16.280329999999992c9.033379999999966,1.2523199999999974,15.80840999999998,10.644830000000013,14.67926,21.28964000000002c-1.6937900000000354,15.654179999999997,-4.516669999999976,31.30831999999998,-9.033390000000054,46.336329999999975c-2.258299999999963,7.513980000000004,-9.033379999999966,12.523320000000012,-16.372979999999984,12.523320000000012l-0.000009999999974752427,0Z"/>
   </g>
   <g stroke="null" id="svg_8">
    <path stroke="null" fill="#8B0000" id="svg_9" d="M633.11529,283.55658c-8.468809999999962,0,-15.80840999999998,-6.8878199999999765,-16.937559999999962,-16.280329999999992c-14.67926,-125.23326,-111.78805,-219.78439,-225.83443999999997,-219.78439c-18.06677000000002,0,-35.56894,2.5046699999999973,-53.0711,6.887830000000001c-9.033360000000016,1.8785000000000025,-18.631320000000017,-4.383159999999997,-20.325080000000014,-14.40182c-2.258359999999982,-10.01867,3.387519999999995,-20.03733,12.42086999999998,-22.54199c19.760530000000017,-5.00933,40.08562999999998,-8.14017,60.97530999999998,-8.14017c130.98398000000003,0,242.77200999999997,108.32679,259.70957000000004,252.34504c1.1292099999999436,10.018669999999986,-5.08123999999998,19.411159999999995,-14.679200000000037,21.28967c-1.1292099999999436,0.6261600000000271,-1.6937900000000354,0.6261600000000271,-2.2583700000000135,0.6261600000000271Z"/>
   </g>
   
   <g stroke="null" id="svg_12">
    <path stroke="null" fill="#1E90FF" id="svg_13" d="M205.72366,318.62189c-9.59796,0,-16.937569999999994,-8.140170000000012,-16.937569999999994,-18.78498000000002c0,-125.23329000000001,88.63999999999999,-223.54141,201.55720000000002,-223.54141c35.56894,0,71.13785000000001,10.018659999999997,101.62549000000001,30.055980000000005c7.904209999999978,5.009339999999995,10.72714000000002,16.906499999999994,6.21044999999998,25.672830000000005c-4.516689999999983,8.76633000000001,-15.243809999999996,11.89715000000001,-23.14801,6.887830000000008c-25.40636999999998,-16.280329999999992,-54.76486,-25.046660000000003,-84.68793,-25.046660000000003c-94.28586000000001,0,-167.68205,81.40163000000001,-167.68205,185.97141c0,10.644830000000013,-7.904210000000006,18.785000000000025,-16.937579999999997,18.785000000000025Z"/>
   </g>
   <g stroke="null" id="svg_14">
    <path stroke="null" fill="#7CFC00" id="svg_15" d="M186.52774,468.90182c-2.8229399999999885,0,-6.210450000000009,-0.6261600000000271,-9.033389999999997,-3.1308200000000284c-7.90419,-5.635499999999979,-10.162530000000004,-16.906499999999994,-5.645859999999999,-25.672829999999976c0.5645900000000097,-1.2523499999999785,9.033389999999997,-19.411159999999995,13.550080000000008,-68.87828999999999c1.1291699999999878,-10.018680000000018,9.03336999999999,-17.532690000000002,18.631339999999994,-16.906499999999994c9.03336999999999,1.2523199999999974,15.80841000000001,10.01864999999998,15.24382,20.663490000000024c-5.645859999999999,59.485810000000015,-16.372990000000016,80.77545000000003,-18.631339999999994,84.53244000000001c-3.387509999999992,6.261689999999987,-8.468790000000013,9.392510000000016,-14.114650000000012,9.392510000000016Z"/>
   </g>
   <g stroke="null" id="svg_16">
    <path stroke="null" fill="#FF8C00" id="svg_17" d="M453.57693,580.9856c-3.3875100000000202,0,-6.775019999999984,-1.2523200000000543,-10.162530000000004,-3.7570200000000114c-7.33963,-6.261660000000006,-9.033389999999997,-17.532659999999964,-3.9521199999999794,-26.29894999999999c0.5645799999999781,-0.6261600000000271,50.248170000000016,-80.14929999999998,56.458619999999996,-221.66291c0.5645700000000033,-10.644830000000013,8.468779999999981,-18.785000000000025,17.502130000000022,-18.158810000000017c9.597970000000032,0.6261600000000271,16.37298999999996,9.39249000000001,16.37298999999996,19.411159999999995c-6.210389999999961,154.66305999999997,-60.41066999999998,239.19552999999996,-62.669010000000014,242.95254999999997c-3.3875100000000202,5.009339999999952,-8.468810000000019,7.513979999999947,-13.55007999999998,7.513979999999947Z"/>
   </g>
   <g stroke="null" id="svg_18">
    <path stroke="null" fill="#3f3f3f" id="svg_19" d="M508.90637,280.42575c-7.33963,0,-14.114649999999983,-5.635499999999979,-16.372979999999984,-13.775660000000016c-12.985479999999995,-50.71947,-54.200260000000014,-85.15861999999998,-102.75466999999998,-85.15861999999998c-30.48764,0,-58.152379999999994,12.523329999999987,-77.91287,35.69148000000001c-6.21044999999998,7.51400000000001,-16.937599999999975,7.51400000000001,-23.712620000000015,0.6261599999999987c-6.775019999999984,-6.887810000000002,-6.775019999999984,-18.78497999999999,-0.5645799999999781,-26.29898c26.535529999999994,-30.68216000000001,62.669039999999995,-47.58864,102.19006999999999,-47.58864c63.798220000000015,0,117.99850000000004,45.083969999999994,135.50063999999998,112.70994999999999c2.822940000000017,10.01864999999998,-2.822940000000017,20.663479999999993,-11.85626000000002,23.168150000000026c-1.129220000000032,0.6261600000000271,-2.822940000000017,0.6261600000000271,-4.5167299999999955,0.6261600000000271Z"/>
   <text dy="-0.5em" id="e171_texte" style="font-family: Arial; font-size: 20px;" dx="" y="" x="" transform="matrix(0.998924 -0.0463827 0.0463827 0.998924 -21.7306 52.7823)" fill="ghostwhite"><textPath xmlns:xlink="http://www.w3.org/1999/xlink" id="e170_textPath" xlink:href="#svg_19" startOffset="418.3" spacing="auto" method="stretch">ⒸKalyan</textPath></text></g>
   <g stroke="null" id="svg_20">
    <path stroke="null" fill="#BDB76B" id="svg_21" d="M230.56545,524.00446c-2.8229300000000137,0,-5.645859999999999,-0.6261600000000271,-8.468799999999987,-2.504639999999995c-7.904210000000006,-5.009339999999952,-10.727129999999988,-16.906529999999975,-6.210430000000002,-25.672849999999983c0.5645700000000033,-0.6261600000000271,33.87514999999999,-67.62597999999997,33.87514999999999,-195.99006000000003c0,-11.270989999999983,1.129160000000013,-21.915830000000028,2.8229200000000105,-32.560659999999984c1.6937599999999975,-10.01864999999998,10.72714000000002,-16.906479999999988,19.760530000000017,-15.027989999999988c9.033389999999997,1.8784899999999993,15.243830000000003,11.897159999999985,13.550049999999999,21.91582999999997c-1.6937599999999975,8.140170000000012,-2.258330000000001,16.906499999999994,-2.258330000000001,25.046659999999974c0,139.63508000000002,-36.69809000000001,212.27039000000002,-38.39186000000001,214.77503000000002c-3.387519999999995,6.887820000000033,-9.03336999999999,10.018680000000018,-14.67922999999999,10.018680000000018Z"/>
   </g>
   <g stroke="null" id="svg_22">
    <path stroke="null" fill="#000080" id="svg_23" d="M387.52039,592.25659c-3.387519999999995,0,-6.21044999999998,-1.2523200000000543,-9.597969999999975,-3.130859999999984c-7.904200000000003,-5.635499999999979,-10.162559999999985,-17.53264999999999,-4.516689999999983,-26.29894999999999c0.5645799999999781,-0.6261600000000271,35.00434000000001,-60.111969999999985,53.071109999999976,-153.41075999999998c1.6937500000000227,-10.01864999999998,10.727109999999982,-16.906499999999994,20.325069999999982,-14.401830000000018c9.033389999999997,1.8785100000000057,15.243839999999977,11.897159999999985,12.985500000000002,22.54199c-19.19592,100.81278000000003,-56.45861000000002,163.42942,-58.15237000000002,165.93411999999995c-2.822940000000017,5.635430000000042,-8.468779999999981,8.766290000000026,-14.114649999999983,8.766290000000026Z"/>
   </g>
   <g stroke="null" id="svg_24">
    <path stroke="null" fill="#20B2AA" id="svg_25" d="M275.73233,560.9483c-3.3875100000000202,0,-6.775019999999984,-1.2523200000000543,-10.162539999999979,-3.7570200000000114c-7.33963,-6.2616500000000315,-9.033380000000022,-17.53264999999999,-3.9521100000000047,-26.29894999999999c0.5645999999999844,-1.2523200000000543,47.9898,-76.39229999999998,47.9898,-231.05538c0,-50.09333000000001,35.56894,-88.91565,80.17124000000001,-88.91565c44.60228999999998,0,80.73581000000001,40.074659999999994,80.73581000000001,88.91565c0,18.784969999999987,-1.1291899999999941,38.19612999999998,-2.822940000000017,57.60730000000001c-1.1291800000000194,10.018640000000005,-9.59796,17.53264999999999,-18.631349999999998,16.90649000000002c-9.033360000000016,-1.2523499999999785,-15.80840999999998,-10.018680000000018,-15.243800000000022,-20.663509999999974c1.6937500000000227,-17.53266000000002,2.258330000000001,-35.69146999999998,2.258330000000001,-53.85028c0,-28.177489999999977,-20.88968,-51.34566000000001,-46.860630000000015,-51.34566000000001c-25.970979999999997,0,-46.29608000000002,22.541969999999992,-46.29608000000002,51.34566000000001c0,168.43872,-51.94193000000001,249.84035999999998,-54.200260000000014,252.97116c-2.822940000000017,5.009329999999977,-7.904200000000003,8.140189999999961,-12.98547000000002,8.140189999999961Z"/>
   </g>
   <g stroke="null" id="svg_26">
    <path stroke="null" fill="#FF6347" id="svg_27" d="M329.93259,581.61176c-3.387519999999995,0,-6.21044999999998,-1.2523200000000543,-9.033389999999997,-3.130859999999984c-7.904200000000003,-5.635440000000017,-10.162539999999979,-17.532659999999964,-5.081270000000018,-25.672789999999964c0,0,6.21044999999998,-10.644840000000045,14.114660000000015,-30.055970000000002c3.9521199999999794,-9.39251999999999,14.114649999999983,-13.14951000000002,22.58343000000002,-8.766359999999963c8.468810000000019,4.3831800000000385,11.856330000000014,15.654170000000022,7.904209999999978,25.04663000000005c-9.033360000000016,21.915830000000028,-16.372990000000016,33.813049999999976,-16.372990000000016,34.43921c-2.822940000000017,5.635499999999979,-8.468779999999981,8.140139999999974,-14.114649999999983,8.140139999999974Z"/>
   </g>
   <g stroke="null" id="svg_28">
    <path stroke="null" fill="#C71585" id="svg_29" d="M367.19528,489.56531c-2.822940000000017,0,-5.081270000000018,-0.6261600000000271,-7.904200000000003,-1.8785100000000057c-8.468779999999981,-4.3831500000000005,-11.856299999999976,-16.280309999999986,-7.33963,-25.046659999999974c0,-0.6261600000000271,22.583460000000002,-51.971810000000005,22.583460000000002,-162.80323000000004c0,-10.644830000000013,7.3396000000000186,-18.785000000000025,16.93756000000002,-18.785000000000025s16.937599999999975,8.140170000000012,16.937599999999975,18.785000000000025c0,120.22393999999997,-25.406380000000013,177.20508,-26.535559999999975,179.70974999999999c-2.822900000000004,6.261660000000006,-8.468779999999981,10.01864999999998,-14.679230000000018,10.01864999999998Z"/>
   </g>
  <path stroke="null" fill="#008000" id="svg_11" d="M530.36066,545.29413c-2.822940000000017,0,-5.645880000000034,-0.6261600000000271,-8.468809999999962,-2.504639999999995c-7.904179999999997,-5.009339999999952,-10.727120000000014,-16.906489999999962,-6.210450000000037,-25.67285000000004c0.5645700000000033,-0.6261600000000271,41.77941999999996,-82.02780999999999,41.77941999999996,-217.27972999999997c0,-33.81299000000001,-7.904239999999959,-66.37362000000002,-23.14808000000005,-95.17727c-4.516660000000002,-8.76633000000001,-2.258299999999963,-20.6635,6.210450000000037,-25.672830000000005c7.904239999999959,-5.009330000000006,18.631349999999998,-2.504660000000001,23.14806999999996,6.887820000000005c18.066720000000032,34.43915999999999,27.664679999999976,73.26148000000003,27.664679999999976,113.96227999999999c0,145.89675999999997,-44.602300000000014,232.30773999999997,-46.86066000000005,236.06470000000002c-2.258299999999963,6.261719999999968,-7.904170000000022,9.39251999999999,-14.114619999999945,9.39251999999999Z"/></g>
 </g>
</svg>